<svg width="286" height="327" viewBox="0 0 286 327" fill="none" xmlns="http://www.w3.org/2000/svg">
<path d="M45.9455 243.001C3.63059 266.003 27.4584 322.713 41.4264 325.092C52.1847 326.925 87.5521 325.874 104.693 325.092L237.39 230.311L159.743 220C135.916 220 79.7975 224.6 45.9455 243.001Z" fill="white"/>
<path d="M104.693 325.092C104.081 325.122 105.357 325.062 104.693 325.092ZM104.693 325.092C87.5521 325.874 52.1847 326.925 41.4264 325.092C27.4584 322.713 3.63059 266.003 45.9455 243.001C79.7975 224.6 135.916 220 159.743 220L237.39 230.311L104.693 325.092Z" stroke="black" stroke-width="1.62158"/>
<path d="M57.4476 250.786C86.6983 245.393 110.444 261.978 118.66 270.945C120.033 269.092 121.517 267.261 123.119 265.46C120.594 254.752 71.4157 243.251 57.4476 250.786Z" fill="#000001"/>
<path d="M101.727 326.266C102.766 326.222 103.757 326.179 104.693 326.136L213.076 248.721C208.301 247.163 195.995 242.367 184.968 235.653C110.16 244.21 98.3041 299.627 101.727 326.266Z" fill="#0E1729"/>
<path d="M170.424 326.135H225.475C279.292 309.479 237.389 234.13 237.389 231.354L217.258 228.681C114.716 234.791 99.4882 296.196 104.692 326.135" stroke="black" stroke-width="1.62158"/>
<path d="M159.743 297.583C166.316 303.928 169.603 319.262 170.425 326.136H176.587C174.944 318.337 169.274 301.707 159.743 297.583Z" fill="#000001"/>
<path d="M172.027 78.5551C169.863 75.8965 164.237 67.731 159.043 56.3373C160.224 55.008 162.466 50.982 161.994 45.513C155.857 44.6015 152.137 31.8406 151.045 25.5741C159.195 21.2098 152.25 9.5677 154.912 9.05348C157.863 8.48351 165.535 11.3319 165.535 18.7378C165.535 26.1437 178.68 22.648 182.06 21.0166C190.321 17.0288 187.371 26.714 183.83 35.8287C181.941 39.0189 188.551 45.1335 192.092 47.7921C193.036 56.907 184.617 70.9593 180.289 76.846C180.879 93.9366 180.997 128.118 176.748 128.118C173.915 122.649 172.42 92.7972 172.027 78.5551Z" fill="white" stroke="black" stroke-width="1.08105"/>
<path d="M166.714 26.7102C165.731 27.6597 164.354 30.3562 166.714 33.5464" stroke="#241715" stroke-width="0.540525"/>
<path d="M171.435 35.2597C171.042 37.3486 169.311 40.5008 165.534 36.3991" stroke="#241715" stroke-width="0.540525"/>
<path d="M184.419 28.4209C185.206 26.332 186.189 22.2683 183.829 22.724" stroke="#241715" stroke-width="0.540525"/>
<path d="M161.364 51.7785C161.884 50.0391 162.201 47.9149 161.993 45.5122C165.264 47.2215 170.845 47.7912 182.648 39.8151C183.119 45.7398 168.655 50.2593 161.364 51.7785Z" fill="black"/>
<path d="M191.501 9.05294C195.632 18.7376 186.19 31.8403 183.829 35.8281C187.37 26.7135 189.73 17.0282 182.059 21.016C178.732 22.7455 165.534 26.1432 165.534 18.7373C165.534 11.3314 157.862 8.48297 154.912 9.05294C152.25 9.56717 159.194 21.2093 151.044 25.5735C150.161 26.0467 149.1 26.4343 147.83 26.7129C150.781 22.7251 149.6 23.2948 147.24 13.6101C144.879 3.92549 155.502 1.64703 165.534 0.507665C175.567 -0.631706 187.37 -0.631705 191.501 9.05294Z" fill="black"/>
<path d="M246.975 70.5797C239.421 61.009 207.238 51.4003 192.091 47.7923C193.035 56.9072 184.615 70.9595 180.288 76.8462C180.878 93.9368 180.996 128.118 176.747 128.118C173.914 122.649 172.419 92.7974 172.026 78.5553C169.862 75.8967 164.236 67.7312 159.042 56.3375C157.862 59.7557 125.994 83.1127 120.682 90.5186C115.371 97.9245 113.6 169.135 113.6 175.402C113.6 181.668 111.24 224.395 130.715 224.395C146.295 224.395 209.992 226.483 242.254 227.243C246.975 179.01 254.529 80.1504 246.975 70.5797Z" fill="black"/>
<path d="M113.602 175.398C145.864 168.942 210.388 161.84 210.388 185.083C210.388 208.326 180.486 221.462 165.536 225.124M210.388 52.8621C206.453 54.5891 198.112 62.7145 196.224 81.4001C193.863 104.757 186.286 112.733 180.147 112.733M174.123 113.872C169.097 116.531 158.1 118.544 154.323 105.327C149.602 88.806 139.751 79.6911 128.742 82.5395M228.092 59.1828C226.912 58.7006 208.027 71.1458 206.256 99.6301C204.486 128.114 185.601 181.665 146.651 153.18C131.896 138.938 117.68 130.013 115.292 130.963M159.044 224.952C164.355 220.018 173.562 208.554 167.896 202.173C162.231 195.793 131.242 204.452 116.455 209.579M249.809 85.3879C237.062 92.9837 213.574 117.176 221.6 153.18C228.682 173.689 241.624 171.6 247.209 167.992M245.074 195.907C237.446 196.004 222.899 202.321 225.732 226.815" stroke="white" stroke-width="0.540525"/>
<path d="M176.747 224.389V128.682" stroke="#027269" stroke-width="0.540525"/>
<path d="M177.101 223.457L174.201 202.64C167.606 203.795 153.87 204.914 143.26 205.885C132.152 206.901 129.352 212.531 136.809 214.329C132.908 213.859 128.542 219.05 134.765 221.374C130.2 222.939 139.229 224.686 143.655 224.695C141.122 225.064 136.73 225.746 137.327 228.336C137.924 230.927 164.092 226.163 177.101 223.457Z" fill="white"/>
<path d="M177.102 223.458L174.201 202.641C172.667 202.91 170.746 203.176 168.568 203.44L161.97 226.357C167.514 225.384 172.971 224.317 177.102 223.458Z" fill="black"/>
<path d="M143.836 224.848L153.013 222.355" stroke="black" stroke-width="0.540525"/>
<path d="M136.867 219.285L152.955 217.4" stroke="black" stroke-width="0.540525"/>
<path d="M136.809 214.329L153.24 211.585" stroke="black" stroke-width="0.540525"/>
<path d="M264.484 205.177C265.913 183.36 267.471 73.4113 241.976 67.4844C212.507 60.6334 212.893 165.488 225.687 189.409L165.511 195.314L171.157 231.557C200.413 229.584 262.121 241.279 264.484 205.177Z" fill="black"/>
<path d="M241.976 67.4841C212.507 60.6331 212.893 165.487 225.687 189.408L165.51 195.314" stroke="white" stroke-width="0.540525"/>
<path d="M254.252 83.2847C245.146 84.2406 224.908 89.3155 219.944 101.211M259.917 102.427C251.711 105.892 232.498 117.556 230.075 129.53C227.651 141.504 253.318 137.461 263.695 135.241M264.324 156.206C255.699 160.093 225.465 162.673 218.685 153.775M264.638 193.578C255.805 188.403 230.376 178.074 223.721 182.032M199.799 191.755C196.022 199.654 201.938 228.703 218.685 231.861" stroke="white" stroke-width="0.540525"/>
<path d="M6.45126 150.272H107.752C109.509 150.272 111.09 151.334 111.755 152.96L141.817 226.52C142.481 228.146 144.063 229.209 145.82 229.209H224.78C226.179 229.209 227.314 230.343 227.314 231.743C227.314 233.143 226.179 234.278 224.78 234.278H37.4082C35.6547 234.278 34.0747 233.219 33.4084 231.597L2.45142 156.239C1.28242 153.394 3.37489 150.272 6.45126 150.272Z" fill="white" stroke="black" stroke-width="1.62158"/>
<path d="M111.281 151.724L144.614 229.209H142.323C140.597 229.209 139.036 228.182 138.352 226.597L106.871 153.623C106.188 152.039 107.35 150.272 109.075 150.272C110.035 150.272 110.902 150.843 111.281 151.724Z" fill="black"/>
<path d="M33.4084 231.597L2.4514 156.239C1.28242 153.394 3.37489 150.272 6.45126 150.272H14.2117C14.8352 150.272 15.4497 150.407 16.0194 150.661C18.7829 151.89 23.4084 153.824 31.1035 157.577C56.7785 170.099 60.0216 196.71 54.6164 209.754C50.2343 220.33 108.156 231.261 130.912 234.278H37.4082C35.6547 234.278 34.0747 233.219 33.4084 231.597Z" fill="black"/>
<ellipse cx="6.41991" cy="7.18918" rx="6.41991" ry="7.18918" transform="matrix(-0.940272 0.340423 0.362157 0.932117 71.8407 176.361)" fill="black"/>
</svg>
