<?xml version="1.0" encoding="UTF-8"?>
<svg version="1.1" viewBox="0 0 2048 2048" width="1280" height="1280" xmlns="http://www.w3.org/2000/svg">
<path transform="translate(392,307)" d="m0 0h1263l24 3 20 5 25 10 16 8 17 11 13 10 13 12 9 9 11 14 9 13 8 13 10 22 7 22 5 25 1 8 1 26v1014l-1 24-4 25-7 24-9 21-8 15-12 18-11 13-9 10-13 12-12 9-14 9-23 12-18 7-24 6-20 3-12 1h-1247l-21-2-20-4-19-6-15-6-16-8-16-10-13-10-10-9-18-18-12-16-10-16-12-25-7-21-5-25-2-21v-1044l3-24 5-22 8-22 9-19 12-19 10-13 11-12 4-5 8-7 15-12 17-11 17-9 15-6 19-6 25-5zm210 308-15 3-14 5-12 6-12 9-8 7-11 14-8 14-6 16-3 15-1 15 3 21 4 13 6 13 6 10 12 14 232 232-1 5-235 235-9 12-6 11-5 12-4 14-1 8v22l3 16 6 16 7 13 13 16 13 11 13 8 15 6 18 4h27l18-4 18-8 11-7 11-9 310-310 10-13 6-11 6-14 4-19v-23l-3-16-7-19-9-15-12-13-5-6-6-5-6-7-8-7-262-262-6-7-8-7-11-11-13-9-14-7-15-5-11-2zm520 614-18 2-16 5-16 8-14 11-9 9-10 14-7 14-5 15-2 12v25l4 18 5 13 6 11 9 12 12 12 15 10 15 7 14 4 12 2 62 1h148l111-1 16-2 11-3 15-6 13-8 11-9 8-8 9-13 7-14 5-16 2-11v-23l-3-16-6-16-6-12-10-13-10-10-14-10-17-8-19-5-12-1z"/>
</svg>
